<svg enable-background="new 0 0 128 128" viewBox="0 0 128 128" xmlns="http://www.w3.org/2000/svg" xmlns:xlink="http://www.w3.org/1999/xlink"><linearGradient id="SVGID_1_" gradientUnits="userSpaceOnUse" x1="19.775" x2="108.222" y1="78.002" y2="78.002"><stop offset="0" stop-color="#fef156"/><stop offset=".4469" stop-color="#ffc242"/><stop offset="1" stop-color="#fc753f"/></linearGradient><linearGradient id="SVGID_00000151524190457507237910000013584467559134138249_" gradientUnits="userSpaceOnUse" x1="32" x2="96" y1="78" y2="78"><stop offset=".00000011188" stop-color="#a47af4"/><stop offset=".4469" stop-color="#8954dd"/><stop offset="1" stop-color="#6936ba"/></linearGradient><linearGradient id="SVGID_00000068660752277070260490000010230140936635521441_" gradientUnits="userSpaceOnUse" x1="68" x2="126" y1="32" y2="32"><stop offset="0" stop-color="#a4eeff"/><stop offset=".7319" stop-color="#02c0fc"/><stop offset="1" stop-color="#27a6ff"/></linearGradient><linearGradient id="SVGID_00000010302843778941903640000000959482546892744126_" gradientUnits="userSpaceOnUse" x1="108.923" x2="94.737" y1="60.911" y2="18.487"><stop offset="0" stop-color="#a4eeff" stop-opacity="0"/><stop offset=".039" stop-color="#8adfff" stop-opacity=".067"/><stop offset=".0943" stop-color="#6bcdff" stop-opacity=".162"/><stop offset=".1554" stop-color="#52bfff" stop-opacity=".266"/><stop offset=".2233" stop-color="#3fb4ff" stop-opacity=".383"/><stop offset=".3018" stop-color="#31acff" stop-opacity=".517"/><stop offset=".4005" stop-color="#29a7ff" stop-opacity=".686"/><stop offset=".5836" stop-color="#27a6ff"/></linearGradient><g id="Layer_1"/><g id="Generate_Text"><g fill="#a4eeff"><path d="m12 65h-7c-1.657 0-3-1.343-3-3s1.343-3 3-3h4.838l1.316-3.948c.408-1.226 1.555-2.052 2.846-2.052h10c1.657 0 3 1.343 3 3s-1.343 3-3 3h-7.838l-1.316 3.948c-.409 1.226-1.555 2.052-2.846 2.052z"/><path d="m24 103h-10c-1.291 0-2.438-.826-2.846-2.052l-1.316-3.948h-4.838c-1.657 0-3-1.343-3-3s1.343-3 3-3h7c1.291 0 2.437.826 2.846 2.052l1.316 3.948h7.838c1.657 0 3 1.343 3 3s-1.343 3-3 3z"/><path d="m22 81h-13c-1.657 0-3-1.343-3-3s1.343-3 3-3h13c1.657 0 3 1.343 3 3s-1.343 3-3 3z"/><path d="m114 103h-10c-1.657 0-3-1.343-3-3s1.343-3 3-3h7.838l1.316-3.948c.408-1.226 1.555-2.052 2.846-2.052h7c1.657 0 3 1.343 3 3s-1.343 3-3 3h-4.838l-1.316 3.948c-.409 1.226-1.555 2.052-2.846 2.052z"/><path d="m119 81h-13c-1.657 0-3-1.343-3-3s1.343-3 3-3h13c1.657 0 3 1.343 3 3s-1.343 3-3 3z"/></g><path d="m107.01 91.14c-1.05 5.66-2.79 11.23-5.22 16.57l-2.06 4.53c-.3.66-.83 1.19-1.49 1.49l-4.53 2.06c-9.44 4.29-19.58 6.44-29.71 6.44-10.14 0-20.27-2.15-29.71-6.44l-4.53-2.06c-.66-.3-1.19-.83-1.49-1.49l-2.06-4.53c-8.58-18.88-8.58-40.54 0-59.42l2.06-4.53c.3-.66.83-1.19 1.49-1.49l4.53-2.06c17.31-7.87 36.96-8.52 54.66-1.96 1.61.59 3.19 1.25 4.76 1.96l4.53 2.06c.66.3 1.19.83 1.49 1.49l2.06 4.53c6.15 13.54 7.89 28.5 5.22 42.85z" fill="url(#SVGID_1_)"/><path d="m96 78c0 .69-.02 1.38-.07 2.06-1.06 16.69-14.98 29.94-31.93 29.94-17.64 0-32-14.36-32-32s14.36-32 32-32c4.79 0 9.33 1.06 13.42 2.95 10.96 5.09 18.58 16.2 18.58 29.05z" fill="url(#SVGID_00000151524190457507237910000013584467559134138249_)"/><path d="m96 78c0 .69-.02 1.38-.07 2.06l-25.05-25.05 6.54-6.06c10.96 5.09 18.58 16.2 18.58 29.05z" fill="#6936ba"/><path d="m59.819 65.975c-.43-1.186-1.557-1.975-2.819-1.975s-2.389.789-2.819 1.975l-8 22c-.566 1.558.237 3.278 1.794 3.845 1.557.563 3.277-.237 3.845-1.794l.736-2.026h8.888l.737 2.025c.443 1.219 1.594 1.976 2.819 1.976.341 0 .687-.059 1.025-.182 1.557-.566 2.36-2.287 1.794-3.845zm-5.081 16.025 2.262-6.222 2.262 6.222z" fill="#fff"/><path d="m77 64c-1.657 0-3 1.343-3 3v22c0 1.657 1.343 3 3 3s3-1.343 3-3v-22c0-1.657-1.343-3-3-3z" fill="#fff"/><path d="m126 16v32c0 5.51-4.49 10-10 10h-38c-5.51 0-10-4.49-10-10v-32c0-5.51 4.49-10 10-10h38c5.51 0 10 4.49 10 10z" fill="url(#SVGID_00000068660752277070260490000010230140936635521441_)"/><path d="m126 43.76v4.24c0 5.51-4.49 10-10 10h-22.23l-12.97-12.97 11.81-5.18-4.76-4.76 2.05-2.95-9.02-9.02 18.24-4.25 12.61 12.61 1.38-.61z" fill="url(#SVGID_00000010302843778941903640000000959482546892744126_)"/><path d="m83 24h4v9c0 1.657 1.343 3 3 3s3-1.343 3-3v-9h4c1.657 0 3-1.343 3-3s-1.343-3-3-3h-14c-1.657 0-3 1.343-3 3s1.343 3 3 3z" fill="#3f57a0"/><path d="m98 33c0 1.657 1.343 3 3 3h10c1.657 0 3-1.343 3-3s-1.343-3-3-3h-10c-1.657 0-3 1.343-3 3z" fill="#3f57a0"/><path d="m114 43c0 1.66-1.34 3-3 3h-28c-1.66 0-3-1.34-3-3s1.34-3 3-3h28c1.66 0 3 1.34 3 3z" fill="#2a428b"/></g><g id="Generate_Image"/><g id="View"/><g id="Robot_Arm"/><g id="Chat_Bot"/><g id="Generate_Video"/><g id="Network"/><g id="Protection"/><g id="Smartwatch"/><g id="Smarthome"/><g id="Smart_car"/><g id="VR"/><g id="Eye"/><g id="Smart_Eyeglass"/><g id="Brain"/><g id="Robot"/><g id="Holographic"/><g id="Ai"/><g id="Chip"/><g id="Brain_AI"/><g id="Layer_22" display="none"/></svg>