<?xml version="1.0" encoding="UTF-8"?>
<svg xmlns="http://www.w3.org/2000/svg" xmlns:xlink="http://www.w3.org/1999/xlink" version="1.1" id="Capa_1" x="0px" y="0px" viewBox="0 0 512 512" style="enable-background:new 0 0 512 512;" xml:space="preserve" width="512" height="512">
<g>
	<g>
		<g>
			<path style="fill:#FFCD69;" d="M380.874,64.148h-279.66c-13.386,0-24.237,10.851-24.237,24.237v140.999h303.897V64.148z"/>
			<path style="fill:#E0E9EE;" d="M380.874,477.763V229.385H76.977v248.378c0,13.386,10.851,24.237,24.237,24.237h255.423&#10;&#9;&#9;&#9;&#9;C370.023,502,380.874,491.149,380.874,477.763z"/>
		</g>
	</g>
	<g>
		<g>
			<path style="fill:#FF7D97;" d="M410.786,10H155.363c-13.386,0-24.237,10.851-24.237,24.237v140.999h303.897V34.237&#10;&#9;&#9;&#9;&#9;C435.023,20.851,424.171,10,410.786,10z"/>
			<path style="fill:#FFFFFF;" d="M435.023,423.615V175.236H131.126v248.378c0,13.386,10.851,24.237,24.237,24.237h255.423&#10;&#9;&#9;&#9;&#9;C424.171,447.852,435.023,437,435.023,423.615z"/>
		</g>
	</g>
	<g>
		<path id="XMLID_50_" style="fill:#FF7D97;" d="M314.176,266.899c-8.833-1.123-17.411-0.137-25.206,2.886&#10;&#9;&#9;&#9;c-3.798,1.473-7.994,1.473-11.791,0c-7.794-3.023-16.373-4.009-25.206-2.886c-28.831,3.664-49.439,28.385-44.5,67.244&#10;&#9;&#9;&#9;c4.939,38.859,33.555,77.143,62.386,73.478c2.557-0.325,5.028-0.971,7.407-1.903c3.732-1.463,7.884-1.463,11.617,0&#10;&#9;&#9;&#9;c2.379,0.932,4.851,1.578,7.407,1.903c28.831,3.664,57.447-34.619,62.386-73.478C363.615,295.284,343.007,270.564,314.176,266.899&#10;&#9;&#9;&#9;z"/>
		<path id="XMLID_1481_" style="fill:#89DF8F;" d="M283.622,230.107c9.147,11.706,10.639,26.789,5.047,38.63&#10;&#9;&#9;&#9;c-12.842,2.564-27.117-2.53-36.265-14.236s-10.639-26.789-5.047-38.63C260.2,213.308,274.475,218.401,283.622,230.107z"/>
	</g>
	
		<line style="fill:none;stroke:#000000;stroke-width:20;stroke-linecap:round;stroke-linejoin:round;stroke-miterlimit:10;" x1="82.283" y1="229.385" x2="126.044" y2="229.385"/>
	<path style="fill:none;stroke:#000000;stroke-width:20;stroke-linecap:round;stroke-linejoin:round;stroke-miterlimit:10;" d="&#10;&#9;&#9;M380.874,450.508v27.254c0,13.386-10.851,24.237-24.237,24.237H101.214c-13.386,0-24.237-10.851-24.237-24.237V88.385&#10;&#9;&#9;c0-13.386,10.851-24.237,24.237-24.237h26.829"/>
	
		<line style="fill:none;stroke:#000000;stroke-width:20;stroke-linecap:round;stroke-linejoin:round;stroke-miterlimit:10;" x1="136.431" y1="175.236" x2="429.717" y2="175.236"/>
	<path style="fill:none;stroke:#000000;stroke-width:20;stroke-linecap:round;stroke-linejoin:round;stroke-miterlimit:10;" d="&#10;&#9;&#9;M435.023,345.886v77.728c0,13.386-10.851,24.237-24.237,24.237H155.363c-13.386,0-24.237-10.851-24.237-24.237V34.237&#10;&#9;&#9;c0-13.386,10.851-24.237,24.237-24.237h255.423c13.386,0,24.237,10.851,24.237,24.237v221.68"/>
	<g>
		<g>
			<path style="fill:none;stroke:#000000;stroke-width:20;stroke-linecap:round;stroke-linejoin:round;stroke-miterlimit:10;" d="&#10;&#9;&#9;&#9;&#9;M205.61,128.849l29.613-77.752c0.605-1.479,2.699-1.482,3.307-0.003l29.344,77.755"/>
			
				<line style="fill:none;stroke:#000000;stroke-width:20;stroke-linecap:round;stroke-linejoin:round;stroke-miterlimit:10;" x1="214.846" y1="111.344" x2="258.788" y2="111.344"/>
		</g>
		<g>
			
				<circle style="fill:none;stroke:#000000;stroke-width:20;stroke-linecap:round;stroke-linejoin:round;stroke-miterlimit:10;" cx="330.126" cy="98.437" r="30.412"/>
			
				<line style="fill:none;stroke:#000000;stroke-width:20;stroke-linecap:round;stroke-linejoin:round;stroke-miterlimit:10;" x1="360.538" y1="63.982" x2="360.538" y2="128.849"/>
		</g>
	</g>
	
		<path id="XMLID_1413_" style="fill:none;stroke:#000000;stroke-width:20;stroke-linecap:round;stroke-linejoin:round;stroke-miterlimit:10;" d="&#10;&#9;&#9;M314.176,266.899c-8.833-1.123-17.411-0.137-25.206,2.886c-3.798,1.473-7.994,1.473-11.791,0&#10;&#9;&#9;c-7.794-3.023-16.373-4.009-25.206-2.886c-28.831,3.664-49.439,28.385-44.5,67.244c4.939,38.859,33.555,77.143,62.386,73.478&#10;&#9;&#9;c2.557-0.325,5.028-0.971,7.407-1.903c3.732-1.463,7.884-1.463,11.617,0c2.379,0.932,4.851,1.578,7.407,1.903&#10;&#9;&#9;c28.831,3.664,57.447-34.619,62.386-73.478C363.615,295.284,343.007,270.564,314.176,266.899z"/>
	
		<path id="XMLID_1479_" style="fill:none;stroke:#000000;stroke-width:20;stroke-linecap:round;stroke-linejoin:round;stroke-miterlimit:10;" d="&#10;&#9;&#9;M283.622,230.107c9.147,11.706,10.639,26.789,5.047,38.63c-12.842,2.564-27.117-2.53-36.265-14.236s-10.639-26.789-5.047-38.63&#10;&#9;&#9;C260.2,213.308,274.475,218.401,283.622,230.107z"/>
	
		<line style="fill:none;stroke:#000000;stroke-width:20;stroke-linecap:round;stroke-linejoin:round;stroke-miterlimit:10;" x1="435.023" y1="300.901" x2="435.023" y2="300.901"/>
</g>















</svg>
