<?xml version="1.0" encoding="iso-8859-1"?>
<!-- Generator: Adobe Illustrator 28.0.0, SVG Export Plug-In . SVG Version: 6.00 Build 0)  -->
<svg xmlns="http://www.w3.org/2000/svg" xmlns:xlink="http://www.w3.org/1999/xlink" version="1.1" id="Capa_1" x="0px" y="0px" viewBox="0 0 512 512" style="enable-background:new 0 0 512 512;" xml:space="preserve">
<g>
	<g>
		<path style="fill:#FFD5AE;" d="M388.222,200.074c-0.889-1.001-1.401-1.512-1.401-1.512c42.06-21.296-19.651-70.225-19.651-70.225    c14.141-14.141,4.578-31.755-16.353-47.583l11.454,5.486c9.826-10.248,29.477-35.991,8.736-61.023    C345.42-5.705,289.667-0.147,268.414,41.289l14.587,6.986c-18.959-5.65-38.378-9.059-55.527-9.059    c-17.144,0-36.562,3.409-55.519,9.059l14.585-6.986C165.288-0.147,109.557-5.705,83.948,25.217    c-20.741,25.032-1.089,50.775,8.759,61.023l11.412-5.467c-20.913,15.823-30.462,33.429-16.317,47.565    c0,0-61.733,48.929-19.673,70.225c0,0-40.348,40.281-7.714,89.099c16.913,25.285,43.575,36.059,70.674,39.536    c-1.354,5.865-2.072,11.921-2.072,18.117c0,52.474,50.864,95.013,113.607,95.013c62.744,0,113.607-42.539,113.607-95.013    c0-8.632-1.385-16.993-3.964-24.943c16.473-6.178,31.39-16.44,42.268-32.71C423.478,244.379,395.046,207.81,388.222,200.074z"/>
		<path style="fill:#FFF1E6;" d="M147.085,57.058c-19.496,8.046-37.035,18.095-49.106,28.698    c-7.981-12.56-18.718-35.635-0.823-48.55C116.141,23.49,137.46,45.12,147.085,57.058z"/>
		<path style="fill:#FFF1E6;" d="M356.984,85.756c-12.071-10.604-29.589-20.652-49.107-28.698    c9.648-11.938,30.967-33.568,49.929-19.852C375.701,50.122,364.964,73.196,356.984,85.756z"/>
		<path style="fill:#FFF1E6;" d="M227.483,167.973c31.478,0,42.758,48.017,68.411,56.087c39.192,12.293,65.446,0,90.944-25.498    c0,0,40.348,40.281,7.714,89.099c-46.572,69.625-167.069,29.277-167.069,29.277s-120.497,40.348-167.069-29.277    c-32.634-48.818,7.714-89.099,7.714-89.099c25.498,25.498,51.752,37.791,90.944,25.498    C184.726,215.991,196.005,167.973,227.483,167.973z"/>
		<g>
			
				<ellipse transform="matrix(0.3731 -0.9278 0.9278 0.3731 -151.2402 254.3988)" style="fill:#FF9EB6;" cx="112.627" cy="239.112" rx="41.934" ry="41.933"/>
			
				<ellipse transform="matrix(0.9722 -0.2339 0.2339 0.9722 -46.4392 86.7246)" style="fill:#FF9EB6;" cx="342.34" cy="239.112" rx="41.934" ry="41.934"/>
		</g>
		<path style="fill:#E2AB8C;" d="M395.225,199.918c6.967-5.01,10.878-11.373,11.648-18.981c2.131-21.057-21.6-44.256-31.956-53.298    c5.123-7.453,5.886-15.982,2.164-24.968c-1.926-4.65-5.112-9.398-9.41-14.138c5.493-5.995,12.19-14.897,15.676-25.547    c4.839-14.781,2.043-29.058-8.086-41.286C362.227,5.966,341.285-1.988,319.236,0.427c-23.566,2.578-44.126,16.534-55.219,37.401    c-12.917-2.673-25.376-4.123-36.542-4.123c-11.161,0-23.614,1.449-36.525,4.121c-11.094-20.866-31.653-34.82-55.218-37.399    c-22.053-2.418-42.992,5.539-56.026,21.273C69.577,33.927,66.781,48.203,71.62,62.985c3.486,10.648,10.181,19.549,15.673,25.544    c-4.299,4.742-7.486,9.491-9.412,14.143c-3.721,8.985-2.955,17.515,2.171,24.967c-10.361,9.043-34.102,32.243-31.973,53.301    c0.769,7.606,4.677,13.966,11.64,18.975c-3.748,4.817-9.052,12.745-12.851,22.972c-5.929,15.96-9.186,40.685,8.966,67.839    c14.182,21.202,36.08,34.804,65.086,40.428c10.113,1.961,20.971,2.941,32.499,2.941c11.97,0,24.662-1.057,37.986-3.171    c3.006-0.477,5.056-3.299,4.579-6.305c-0.477-3.007-3.299-5.062-6.306-4.579c-24.883,3.946-47.311,4.047-66.66,0.295    c-26.014-5.044-45.535-17.067-58.022-35.734c-29.65-44.355,5.523-80.622,7.026-82.137c1.251-1.249,1.827-3.021,1.549-4.767    c-0.278-1.745-1.376-3.251-2.953-4.049c-7.214-3.653-10.999-8.17-11.571-13.808c-1.667-16.421,22.664-39.627,32.179-47.182    c1.232-0.977,1.988-2.433,2.078-4.002c0.09-1.57-0.494-3.103-1.606-4.214c-5.26-5.256-6.414-10.834-3.633-17.552    c5.524-13.342,25.674-28.896,53.903-41.605c28.587-12.871,60.552-20.555,85.507-20.555c24.962,0,56.932,7.684,85.518,20.555    c28.227,12.709,48.378,28.263,53.905,41.606c2.783,6.719,1.631,12.296-3.625,17.552c-1.111,1.111-1.694,2.644-1.604,4.212    c0.09,1.568,0.845,3.024,2.075,4.001c9.512,7.555,33.832,30.759,32.163,47.18c-0.573,5.641-4.359,10.159-11.575,13.813    c-1.573,0.796-2.666,2.3-2.947,4.041c-0.281,1.74,0.291,3.514,1.532,4.765c0.056,0.057,0.481,0.49,1.172,1.268    c3.292,3.731,11.381,13.957,15.396,28.303c5.017,17.927,1.811,35.616-9.531,52.576c-14.871,22.243-47.936,46.547-121.014,35.993    c-3.011-0.44-5.806,1.655-6.242,4.666c-0.435,3.013,1.654,5.807,4.666,6.242c25.683,3.707,48.895,3.432,68.991-0.816    c27.856-5.891,48.972-19.336,62.761-39.959C427.12,248.848,405.014,212.573,395.225,199.918z M137.442,55.232    c-17.311,7.795-31.696,16.591-42.216,25.631C72.336,55.877,80.902,37.532,88.193,28.73c10.663-12.871,27.988-19.354,46.339-17.347    c18.94,2.073,35.586,12.83,45.241,29.038C165.581,44.062,151.125,49.071,137.442,55.232z M317.518,55.232    c-13.68-6.16-28.135-11.168-42.326-14.81c9.655-16.209,26.303-26.968,45.243-29.04c18.352-2.011,35.676,4.477,46.338,17.347    c7.292,8.803,15.859,27.148-7.035,52.137C349.217,71.825,334.831,63.027,317.518,55.232z"/>
		<g>
			<path style="fill:#605C5D;" d="M296.055,210.27c-8.419,0-16.335-3.279-22.288-9.232c-2.152-2.152-2.152-5.641,0-7.794     c2.153-2.152,5.641-2.152,7.794,0c3.871,3.872,9.019,6.004,14.494,6.004c5.475,0,10.623-2.132,14.495-6.004     c2.153-2.152,5.641-2.152,7.793,0c2.152,2.152,2.152,5.641,0,7.794C312.39,206.991,304.474,210.27,296.055,210.27z"/>
			<path style="fill:#605C5D;" d="M158.899,210.255c-8.072,0-16.143-3.072-22.288-9.217c-2.153-2.152-2.153-5.641-0.001-7.793     c2.152-2.153,5.641-2.153,7.793-0.001c7.993,7.991,20.997,7.992,28.991,0c2.152-2.152,5.642-2.152,7.793,0.001     c2.152,2.152,2.152,5.641-0.001,7.793C175.042,207.182,166.971,210.255,158.899,210.255z"/>
		</g>
		<g>
			<path style="fill:#FFFFFF;" d="M189.061,217.834c1.35-22.583,27.224-9.886,38.445-9.886c9.91,0,36.116-11.347,38.445,9.886     c2.316,21.106-17.213,38.445-38.445,38.445S187.794,239.029,189.061,217.834z"/>
			<path style="fill:#FFD5AE;" d="M227.506,261.79c-12.369,0-24.311-5.148-32.765-14.122c-7.873-8.358-11.844-19.07-11.181-30.163     c0.31-5.186,1.773-9.389,4.349-12.491l8.479,7.042c-1.044,1.258-1.659,3.312-1.826,6.106c-0.48,8.029,2.433,15.824,8.201,21.948     c6.38,6.773,15.398,10.658,24.743,10.658c9.766,0,19.447-4.295,25.895-11.49c5.377-5.999,7.889-13.402,7.073-20.844     c-0.525-4.784-2.489-6.069-3.135-6.491l6.032-9.224c4.622,3.022,7.333,7.906,8.058,14.514     c1.162,10.596-2.325,21.038-9.821,29.401C253.103,256.124,240.355,261.79,227.506,261.79z"/>
			<path style="fill:#E2AB8C;" d="M263.371,202.719c-8.003-5.235-19.131-3.125-28.073-1.43c-0.776,0.147-1.542,0.292-2.281,0.427     v-13.09h-11.022v13.092c-1.132-0.218-2.324-0.464-3.543-0.718c-10.334-2.152-23.196-4.831-30.543,4.015     c-1.945,2.342-1.623,5.816,0.718,7.76c1.029,0.855,2.277,1.271,3.518,1.271c1.582,0,3.152-0.678,4.242-1.99     c3.111-3.745,12.374-1.816,19.817-0.267c4.122,0.858,8.015,1.669,11.301,1.669c2.771,0,6.049-0.621,9.844-1.34     c6.629-1.255,15.706-2.976,19.989-0.175c2.548,1.666,5.963,0.951,7.628-1.596C266.633,207.8,265.918,204.385,263.371,202.719z"/>
			<path style="fill:#FD80A6;" d="M238.235,181.355L238.235,181.355c-2.758-2.794-7.259-2.823-10.053-0.065l-0.675,0.667     l-0.667-0.675c-2.758-2.794-7.259-2.823-10.053-0.064c-2.794,2.758-2.823,7.259-0.064,10.053l2.369,2.399     c4.577,4.636,12.045,4.684,16.681,0.107l2.399-2.369C240.965,188.65,240.994,184.149,238.235,181.355z"/>
		</g>
	</g>
	<g>
		<path style="fill:#FFFFFF;" d="M62.907,316.063l111.872,20.713c11.393,2.109,18.388,13.739,14.829,24.766    c-13.257,41.082-21.149,83.705-23.479,126.81c-0.626,11.57-11.32,19.924-22.713,17.815    c-37.291-6.904-74.581-13.809-111.872-20.713c-9.409-1.742-16.173-10.132-15.756-19.692    c2.034-46.609,10.569-92.706,25.357-136.954C44.179,319.733,53.498,314.321,62.907,316.063z"/>
		<path style="fill:#E3E3E3;" d="M146.924,512c-1.502,0-3.012-0.136-4.512-0.414L30.541,490.873    c-12.082-2.237-20.791-13.135-20.257-25.351c2.057-47.131,10.682-93.717,25.636-138.46c3.875-11.596,15.912-18.651,27.991-16.417    l111.872,20.713c7.009,1.298,13.123,5.553,16.775,11.674c3.635,6.095,4.472,13.459,2.296,20.203    c-13.105,40.611-20.917,82.806-23.221,125.415c-0.383,7.076-3.8,13.652-9.377,18.042C157.853,510.156,152.443,512,146.924,512z     M59.402,321.252c-5.804,0-11.153,3.688-13.029,9.302c-14.628,43.77-23.066,89.341-25.078,135.448    c-0.295,6.757,4.543,12.791,11.253,14.032l111.872,20.713c3.89,0.722,7.909-0.27,11.019-2.717    c3.132-2.465,4.974-6.008,5.188-9.977c2.355-43.557,10.342-86.69,23.737-128.204c1.221-3.782,0.769-7.75-1.272-11.172    c-2.028-3.399-5.423-5.761-9.316-6.482L61.903,321.482l0,0C61.066,321.327,60.229,321.252,59.402,321.252z"/>
		<path style="fill:#FE518E;" d="M105.949,471.346l-5.823-39.22c-0.319-2.145-1.865-3.903-3.951-4.493    c-2.085-0.594-4.324,0.097-5.719,1.756l-25.161,29.934c-1.958,2.33-1.657,5.806,0.673,7.764c2.329,1.96,5.806,1.657,7.765-0.672    l6.008-7.148l13.89,4.163l1.415,9.534c0.406,2.737,2.758,4.702,5.444,4.702c0.269,0,0.542-0.02,0.816-0.061    C104.318,477.159,106.395,474.357,105.949,471.346z M87.466,450.076l3.555-4.229l0.823,5.541L87.466,450.076z"/>
		<path style="fill:#FE518E;" d="M138.178,462.093l-6.057-1.569l1.569-6.058c0.763-2.946-1.007-5.953-3.953-6.716    c-2.945-0.765-5.954,1.006-6.716,3.953l-1.569,6.058l-6.057-1.569c-2.946-0.766-5.954,1.007-6.716,3.953    c-0.763,2.946,1.007,5.953,3.953,6.716l6.057,1.569l-1.569,6.057c-0.763,2.946,1.007,5.953,3.953,6.716    c0.463,0.12,0.928,0.177,1.386,0.177c2.451,0,4.688-1.647,5.331-4.13l1.569-6.057l6.057,1.569c0.463,0.12,0.928,0.177,1.386,0.177    c2.451,0,4.688-1.648,5.331-4.13C142.894,465.863,141.124,462.856,138.178,462.093z"/>
		<path style="fill:#678490;" d="M154.82,378.279c-0.333,0-0.67-0.03-1.01-0.093l-87.004-16.109    c-2.993-0.554-4.969-3.43-4.415-6.422c0.554-2.993,3.426-4.972,6.422-4.416l87.004,16.109c2.993,0.554,4.969,3.43,4.415,6.422    C159.741,376.424,157.425,378.279,154.82,378.279z"/>
		<path style="fill:#678490;" d="M142.077,422.735c-0.333,0-0.67-0.03-1.01-0.093l-87.004-16.109    c-2.993-0.554-4.969-3.43-4.415-6.422c0.554-2.993,3.426-4.971,6.422-4.416l87.004,16.109c2.993,0.554,4.969,3.43,4.415,6.422    C146.998,420.88,144.681,422.735,142.077,422.735z"/>
		<path style="fill:#678490;" d="M115.723,394.37c-0.333,0-0.67-0.03-1.01-0.093l-53.962-9.991c-2.993-0.554-4.969-3.43-4.415-6.422    c0.554-2.993,3.429-4.971,6.422-4.416l53.962,9.991c2.993,0.554,4.969,3.43,4.415,6.422    C120.644,392.515,118.328,394.37,115.723,394.37z"/>
	</g>
	<g>
		<path style="fill:#FFFFFF;" d="M218.511,331.175l107.729-36.589c10.971-3.726,22.757,3.003,25.04,14.362    c8.506,42.321,22.447,83.366,41.475,122.114c5.107,10.4-0.142,22.915-11.113,26.642c-35.91,12.197-71.82,24.393-107.729,36.589    c-9.061,3.077-19.061-0.938-23.368-9.483c-20.999-41.66-36.075-86.051-44.793-131.882    C203.964,343.527,209.45,334.252,218.511,331.175z"/>
		<path style="fill:#E3E3E3;" d="M267.759,500.82c-9.134,0-17.867-5.061-22.136-13.529c-21.235-42.128-36.47-86.989-45.286-133.333    c-2.285-12.011,4.766-24.048,16.401-28l107.729-36.59c6.751-2.29,14.164-1.566,20.341,1.99c6.15,3.541,10.478,9.558,11.874,16.505    c8.409,41.837,22.21,82.47,41.019,120.77c3.123,6.361,3.354,13.769,0.633,20.324c-2.732,6.583-8.171,11.673-14.921,13.966    l-107.73,36.589C273.075,500.397,270.4,500.82,267.759,500.82z M220.283,336.393c-6.462,2.195-10.382,8.86-9.117,15.505    c8.623,45.336,23.528,89.22,44.3,130.431c3.044,6.04,10.213,8.939,16.675,6.745l107.729-36.589c3.749-1.273,6.769-4.1,8.286-7.754    c1.528-3.681,1.405-7.673-0.347-11.241c-19.228-39.152-33.335-80.688-41.931-123.456c-0.783-3.896-3.117-7.138-6.57-9.126    c-3.43-1.976-7.547-2.377-11.296-1.105L220.283,336.393L220.283,336.393z"/>
		<path style="fill:#FE518E;" d="M331.938,445.628l-24.244-31.375c-1.325-1.715-3.533-2.494-5.642-1.99    c-2.109,0.505-3.726,2.198-4.132,4.328l-7.327,38.411c-0.57,2.989,1.391,5.875,4.38,6.445c0.349,0.066,0.696,0.099,1.039,0.099    c2.593,0,4.904-1.839,5.407-4.479l1.75-9.172l14.155-3.154l5.893,7.627c1.86,2.408,5.321,2.851,7.73,0.991    C333.355,451.498,333.799,448.037,331.938,445.628z M305.418,436.102l1.035-5.428l3.426,4.434L305.418,436.102z"/>
		<path style="fill:#FE518E;" d="M362.267,425.736c-0.773-2.943-3.783-4.703-6.731-3.929l-6.051,1.591l-1.591-6.051    c-0.775-2.943-3.786-4.703-6.731-3.928c-2.943,0.774-4.703,3.788-3.929,6.731l1.591,6.051l-6.052,1.591    c-2.943,0.774-4.702,3.788-3.929,6.731c0.65,2.474,2.883,4.111,5.326,4.111c0.463,0,0.935-0.059,1.405-0.182l6.052-1.591    l1.591,6.052c0.651,2.474,2.883,4.111,5.326,4.111c0.463,0,0.935-0.059,1.405-0.182c2.943-0.774,4.703-3.788,3.929-6.731    l-1.591-6.051l6.051-1.591C361.282,431.693,363.041,428.68,362.267,425.736z"/>
		<path style="fill:#678490;" d="M242.623,369.712c-2.296,0-4.438-1.446-5.218-3.741c-0.978-2.882,0.564-6.011,3.446-6.99    l83.783-28.456c2.88-0.98,6.011,0.564,6.99,3.446c0.978,2.882-0.564,6.011-3.446,6.99l-83.783,28.456    C243.809,369.617,243.211,369.712,242.623,369.712z"/>
		<path style="fill:#678490;" d="M253.226,414.727c-2.296,0-4.438-1.446-5.218-3.741c-0.978-2.882,0.564-6.011,3.446-6.99    l83.783-28.456c2.88-0.981,6.011,0.565,6.99,3.446c0.978,2.882-0.564,6.011-3.446,6.99l-83.783,28.456    C254.411,414.632,253.814,414.727,253.226,414.727z"/>
		<path style="fill:#678490;" d="M248.192,392.046c-2.296,0-4.438-1.446-5.218-3.741c-0.979-2.882,0.564-6.012,3.446-6.99    l51.964-17.649c2.88-0.981,6.011,0.565,6.99,3.446c0.978,2.882-0.564,6.012-3.446,6.99l-51.964,17.649    C249.377,391.951,248.779,392.046,248.192,392.046z"/>
	</g>
	<g>
		<path style="fill:#FFFFFF;" d="M293.098,319.732l89.643-70.061c9.129-7.135,22.474-4.667,28.375,5.304    c21.983,37.151,48.676,71.305,79.415,101.613c8.251,8.135,7.421,21.681-1.708,28.816c-29.881,23.354-59.762,46.707-89.643,70.061    c-7.54,5.892-18.305,5.399-25.188-1.248c-33.559-32.408-62.428-69.346-85.768-109.741    C283.437,336.19,285.559,325.625,293.098,319.732z"/>
		<path style="fill:#E3E3E3;" d="M387.294,465.049c-6.223,0-12.415-2.313-17.131-6.868c-33.936-32.771-63.109-70.1-86.711-110.948    c-6.116-10.586-3.429-24.276,6.252-31.843c0,0,0,0,0-0.001l89.643-70.06c5.616-4.391,12.853-6.151,19.858-4.828    c6.974,1.316,13.044,5.569,16.653,11.668c21.73,36.722,48.155,70.534,78.542,100.496c5.046,4.975,7.706,11.891,7.298,18.977    c-0.409,7.116-3.865,13.714-9.482,18.104l-89.643,70.062C398.083,463.317,392.677,465.049,387.294,465.049z M296.492,324.073    c-5.377,4.203-6.88,11.789-3.497,17.645c23.088,39.96,51.628,76.476,84.825,108.535c4.866,4.698,12.59,5.072,17.966,0.871    l89.643-70.061c3.119-2.438,5.039-6.103,5.266-10.054c0.229-3.978-1.203-7.706-4.034-10.496    c-31.062-30.627-58.075-65.191-80.289-102.73c-2.024-3.42-5.295-5.711-9.211-6.45c-3.886-0.733-7.907,0.243-11.028,2.681    L296.492,324.073L296.492,324.073z"/>
		<path style="fill:#FE518E;" d="M437.917,390.392l-33.232-21.627c-1.817-1.184-4.159-1.191-5.983-0.02    c-1.824,1.171-2.793,3.303-2.474,5.448l5.746,38.678c0.407,2.736,2.759,4.702,5.444,4.702c0.269,0,0.542-0.02,0.816-0.061    c3.011-0.447,5.089-3.251,4.642-6.261l-1.372-9.234l12.323-7.645l8.078,5.257c2.55,1.661,5.964,0.939,7.625-1.613    C441.19,395.465,440.468,392.051,437.917,390.392z M409.74,390.141l-0.812-5.465l4.696,3.056L409.74,390.141z"/>
		<path style="fill:#FE518E;" d="M459.993,361.614c-1.701-2.526-5.127-3.193-7.65-1.49l-5.188,3.496l-3.497-5.189    c-1.702-2.525-5.128-3.192-7.65-1.489c-2.524,1.701-3.191,5.125-1.49,7.65l3.497,5.189l-5.188,3.496    c-2.524,1.701-3.191,5.125-1.49,7.649c1.065,1.58,2.804,2.432,4.575,2.432c1.059,0,2.131-0.305,3.075-0.942l5.188-3.496    l3.497,5.189c1.064,1.579,2.804,2.431,4.575,2.431c1.06,0,2.131-0.305,3.075-0.942c2.524-1.701,3.191-5.125,1.49-7.65    l-3.497-5.188l5.188-3.497C461.026,367.562,461.693,364.137,459.993,361.614z"/>
		<path style="fill:#678490;" d="M326.754,348.472c-1.638,0-3.259-0.727-4.346-2.117c-1.874-2.398-1.45-5.861,0.949-7.735    l69.717-54.488c2.398-1.875,5.861-1.45,7.735,0.948c1.874,2.398,1.45,5.861-0.949,7.735l-69.717,54.487    C329.136,348.09,327.941,348.472,326.754,348.472z"/>
		<path style="fill:#678490;" d="M351.605,387.473c-1.638,0-3.259-0.727-4.346-2.117c-1.874-2.398-1.45-5.861,0.949-7.736    l69.717-54.487c2.398-1.873,5.861-1.448,7.735,0.949c1.874,2.398,1.45,5.861-0.949,7.736l-69.717,54.487    C353.987,387.091,352.792,387.473,351.605,387.473z"/>
		<path style="fill:#678490;" d="M339.375,367.721c-1.638,0-3.259-0.727-4.346-2.117c-1.874-2.398-1.45-5.861,0.949-7.736    l43.24-33.794c2.398-1.873,5.861-1.448,7.735,0.949c1.874,2.398,1.45,5.861-0.949,7.736l-43.24,33.794    C341.757,367.34,340.562,367.721,339.375,367.721z"/>
	</g>
	<g>
		<path style="fill:#FFD5AE;" d="M302.768,273.584c18.208-5.801,35.003-4.115,40.804,14.092    c5.801,18.208-4.257,37.671-22.464,43.472c-18.208,5.801-37.671-4.257-43.472-22.464    C271.836,290.476,284.561,279.385,302.768,273.584z"/>
		<path style="fill:#E2AB8C;" d="M310.56,338.311c-6.321,0-12.593-1.511-18.369-4.496c-9.519-4.919-16.551-13.25-19.804-23.458    c-6.044-18.968,4.421-34.285,28.708-42.024c0,0,0,0,0,0c24.289-7.737,41.685-1.296,47.728,17.67    c3.252,10.208,2.335,21.073-2.584,30.591c-4.918,9.519-13.25,16.552-23.458,19.803    C318.769,337.677,314.653,338.311,310.56,338.311z M304.441,278.834L304.441,278.834c-18.392,5.86-25.643,15.341-21.554,28.176    c2.359,7.404,7.459,13.445,14.363,17.013c6.904,3.566,14.782,4.234,22.186,1.874c7.404-2.359,13.445-7.459,17.013-14.362    c3.567-6.903,4.233-14.782,1.874-22.185C334.233,276.513,322.832,272.978,304.441,278.834z"/>
	</g>
	<g>
		<path style="fill:#FFD5AE;" d="M136.893,298.147c17.183,8.362,28.178,21.169,19.817,38.352    c-8.362,17.183-29.07,24.334-46.253,15.972c-17.183-8.362-24.334-29.07-15.972-46.253    C102.847,289.035,119.71,289.785,136.893,298.147z"/>
		<path style="fill:#E2AB8C;" d="M125.532,361.467c-5.883,0-11.851-1.297-17.487-4.04c-19.888-9.678-28.194-33.732-18.516-53.62    c8.711-17.899,26.853-21.769,49.774-10.616c0.001,0,0.001,0,0.001,0c22.921,11.155,31.072,27.818,22.36,45.718    C154.729,353.162,140.409,361.467,125.532,361.467z M115.956,297.907c-7.512,0-13.039,3.577-16.516,10.723    c-7.019,14.423-0.995,31.867,13.428,38.887c14.424,7.018,31.868,0.993,38.887-13.429c5.895-12.114,0.081-22.54-17.273-30.987l0,0    C127.363,299.638,121.179,297.907,115.956,297.907z"/>
	</g>
</g>
<g>
</g>
<g>
</g>
<g>
</g>
<g>
</g>
<g>
</g>
<g>
</g>
<g>
</g>
<g>
</g>
<g>
</g>
<g>
</g>
<g>
</g>
<g>
</g>
<g>
</g>
<g>
</g>
<g>
</g>
</svg>
