<svg id="svg903" height="512" viewBox="0 0 135.46666 135.46667" width="512" xmlns="http://www.w3.org/2000/svg" xmlns:svg="http://www.w3.org/2000/svg"><g id="layer1"><g id="g3930"><path id="path3895" d="m87.117162 2.7889771c-.60208.012832-1.235376.094501-1.904793.2625162-1.261587.3166432-2.05199.8123261-2.666503 1.3554728-.898636-.2559124-1.231479-.2313586-1.523423-.2382285-.324104-.00763-.586851.0008202-.860928.013954-.548156.026252-1.116589.075803-1.70739.1405599-1.01813.111597-1.943256.2527117-3.029273.5214151-.17748-.1170331-.332304-.3341383-.507463-.427881-2.039885-1.091711-3.356628-.9015965-4.609536-.806669-1.252908.094928-2.417758.3446076-3.554823.6934977-.956511.293491-1.86985.716021-2.802414 1.2345501-.643263-.2295287-1.30525-.4052263-1.838129-.3927409-.286737.00672-.338664.1094399-.572058.144694-1.071129-1.0503834-2.429759-1.982308-3.732588-1.982308-2.406026 0-3.428251 1.2013578-3.966684 1.7750856-.53843.5737275-.796962.9952556-1.07642 1.4474568-.558911.9044022-1.088882 1.9333871-1.835547 3.4354492-1.460783 2.9386679-2.563728 5.2532169-3.324344 6.9882039-.380309.867494-.673005 1.574067-.91054 2.261877-.118766.343906-.225803.669833-.327628 1.150318-.101825.480486-.663464.850062.206706 3.117122.06868.178941.156247.26616.228409.427881-1.053525.517648-1.975747 1.17048-2.8298 1.896525-.640041-.75925-1.365504-1.441281-2.25206-1.898592-3.165041-1.63259-6.451168-.910196-9.025289.420129.505137-1.436023.867307-2.79481.970484-4.193542.05298-.718119.172855-1.442411-.134874-2.75022-.307729-1.30781-1.381398-2.71633-1.943034-3.224609-.563084-.509582-1.340347-1.095879-2.568321-1.421619-1.227976-.32574-2.917085-.150186-4.08037.470772-2.326569 1.241919-2.70748 2.771985-3.10317 3.89847.155731-.443344-.560982 1.195333-1.793172 3.476274-1.23219 2.280942-3.086389 5.617519-5.683374 10.23245-4.6116383 8.194996-7.4425331 13.563518-9.0139196 17.703313-.7856935 2.069897-1.3053068 3.854215-1.3513388 5.837886-.046032 1.983669.7093554 4.354322 2.1130493 5.868892 1.5584921 1.681636 4.0138361 2.398477 5.9319381 2.267561 1.9181-.130913 3.496551-.811204 4.974373-1.708938.659009-.400323 1.501501-1.100627 2.247925-1.636593.01243.179268.000251.31719.0155.505912.181068 2.241277.576303 5.1576 1.183906 8.925552.544707 3.378025 1.621848 8.361984 1.273308 8.730734s-.682237.755213-1.039213 1.189593c-.713954.868757-1.510947 1.91757-2.330091 3.070095-4.097193 5.764737-5.538161 10.726304-5.251875 18.056781.02213.566391.01219.572181.0217.972551-.76702.73354-1.454709 1.46449-2.087728 2.70526v.002c-.99916 1.95884-1.047832 2.88461-1.3399701 4.4297-.3178993 1.68127-1.6109167 7.21299-2.5001059 10.59005-.4380428 1.66368-.5805019 3.28303-.5002278 4.87516.080274 1.59213.048478 3.08533 1.6195394 5.19296 1.629946 2.18674 3.7591534 3.20667 6.0270224 3.85351.488605.13996.995692.20461 1.503784.19172 2.35265.3899 4.417082.24423 6.955131-.0253.514287-.0546 3.177428-.10906 7.056417-.16123 4.532074-.47087 9.920589-1.65737 10.670148-4.63279 1.32292-5.25141-3.496278-15.83469 1.322917-15.83469 4.8192 0 12.756549-1.70105 15.685865-.18914 2.929316 1.5119 9.638318 3.1183 13.134599.66146 3.496278-2.45685 20.127158-2.36227 21.072099-1.22835.944941 1.13393-1.417042 14.2826 1.795756 16.59072 2.249522 1.61608 2.372757 3.38711 5.842019 4.30465 2.70295.0122 4.6016.0314 4.96145.063 6.42425.56442 12.3816-1.27838 16.24035-5.66218 1.11686-1.26881 2.16705-3.02947 2.62103-4.9041.454-1.87463.44764-3.65356.33797-5.75572-.19593-3.75591-.54405-7.09887-1.0449-9.92601-.49008-2.76639-.98436-4.93213-2.20917-7.078118.004-.07454-.0221-.639773.008-2.127001.1087-5.432528-.44284-8.631701-2.52904-14.591877-.42141-1.203891-.8585-2.256115-1.54513-3.427695-.85733-1.462929-1.85577-2.591509-2.93729-3.648358-.43544-.425519-.90036-.808308-1.38079-1.187524.00026-.0067-.00026-.0047 0-.01138.0642-1.637664.14957-3.773291.23616-5.920052.11963-2.965928.18958-4.585292.262-6.300906 3.12014-.885452 6.04865-2.686389 8.14627-5.372798 2.32258-2.974512 3.92108-6.685037 5.41208-11.419975 2.13139-6.768587 3.51494-10.65272 4.22868-12.218892.55113-1.20936 1.03667-1.968381 1.25367-3.736205.21701-1.767827-1.19707-4.593799-2.04071-5.357297-1.36177-1.232352-4.55306-2.110028-6.66832-1.228866-.68605.285791-1.08082.662186-1.54306 1.017509-.11449-.0279-.22596-.115446-.33951-.138492-1.98579-.40298-4.0567-.174764-6.01359.84956-.81592.427071-1.47497 1.003742-2.17609 1.540991-1.39509-1.271913-3.55184-2.039852-5.33766-1.888773-1.26157.106728-2.26626.514384-3.19154.999939-.67819-.586045-1.37837-1.040021-1.90841-1.236101-.3225-.119305-1.05127-.288174-1.9234-.359151-.493469-1.608278-1.495206-3.095155-2.984307-3.924308-.4552-.253435-1.428049-.894519-3.13314-.894519-.05647 0-.08001.0224-.134877.02377.901859-.904285 1.553403-1.750234 2.152325-3.31866.227941-.597119.640958-1.511463.630967-2.952791-.01-1.441327-.414761-2.3039621-.648538-2.9161016-.938785-2.4572499-2.602691-3.8566636-4.398426-4.8440198-.897867-.4936779-1.87434-.9167183-2.961058-1.1327474-.543359-.1080146-1.114094-.1642438-1.716175-.1514118z" fill="#fff" font-variant-ligatures="normal" font-variant-position="normal" font-variant-caps="normal" font-variant-numeric="normal" font-variant-alternates="normal" font-variant-east-asian="normal" font-feature-settings="normal" font-variation-settings="normal" text-indent="0" text-align="start" text-decoration-line="none" text-decoration-style="solid" text-decoration-color="#000000" text-transform="none" text-orientation="mixed" white-space="normal" shape-padding="0" shape-margin="0" inline-size="0" isolation="auto" mix-blend-mode="normal" solid-color="#000000" solid-opacity="1" vector-effect="none"/><g id="g3915"><g stroke-linecap="round" stroke-linejoin="round" stroke-width="5"><path id="path3811" d="m24.75744 56.979909 2.929316 23.387277s6.850817 2.315105 8.315476 3.685268c1.464657 1.370163.472469 2.976562.472469 2.976562s5.527903 3.023809 7.087055 4.535715c1.55915 1.511904.09449 2.409598.09449 2.409598s.992188 2.55134-.330729 2.55134c-1.322916 0-2.740326 1.039434-2.740326 1.039434s3.118302 2.267857 2.220608 2.787577c-.897692.51971-7.323288-.33073-9.638392.0472-2.315105.37797-4.724702 2.78757-4.724702 2.78757s4.866444 1.22842 10.772322.99219c5.905876-.23624 21.686383-.85045 21.686383-.85045l.236235-44.837425.47247-4.252232s-8.976935-2.078869-17.528646-2.220611c-8.551712-.14174-17.008927 2.787576-17.008927 2.787576s-2.362352.661458-2.315105 2.173361z" fill="#bad42a" paint-order="stroke fill markers"/><path id="path3813" d="m69.055762 54.85707s-.21685 20.171203-.21685 25.132141c0 4.960937 2.455233 23.176829 2.455233 23.176829s26.693545-.30068 29.332835-.0668c2.63928.23386 5.21175.80181 5.21175-.30068s-2.7061-3.741772-2.87315-4.744032c-.16704-1.002263-1.87088-1.069081-3.841994-1.302941s-8.519218-.467722-6.414471-2.271791c2.10475-1.804067-.400902-1.937703-1.837476-3.107008-1.436573-1.169305.400902-1.804069 4.744032-1.971111 4.343131-.167045 9.254209.100224 9.254209.100224s-.10023-2.906556-2.47224-3.140416c-2.37202-.23386-9.788749.133635-11.225323-.567947-1.436573-.701582-2.238383-1.637027.367496-2.171565 2.605876-.53454 4.977894-1.202714 4.977894-1.202714s-2.973374-2.204974 1.469983-3.307461c4.44335-1.102487 7.51696-1.670433 7.51696-1.670433l.90203-13.463701s.90203-5.946749-.7684-8.352174c-1.67044-2.405425-4.81085-4.176088-7.784226-4.777443-2.973374-.601356-10.623962-.601356-14.432555.267268-3.808589.868627-6.715146 1.770661-9.254206 2.405428-2.539061.634764-5.111531 1.336347-5.111531 1.336347z" fill="#bad42a" paint-order="stroke fill markers"/><path id="path3891" d="m20.646949 110.51079s-1.795387-3.30729-1.370163-7.2288c.425223-3.921501-.850447-9.449401.897693-13.418151s6.425594-10.110864 8.740698-9.21317 8.031996 2.504093 7.79576 4.441219-.236236 1.937126-.236236 1.937126 5.24442 2.787578 6.850819 4.252235c1.606399 1.464656.330724 2.69308.330724 2.69308s1.511911 2.504093.141745 2.645833c-1.370163.141743-4.18802.171561-3.212798.944941.97522.773377 2.946334 2.36029 1.62669 2.594157-1.319644.23386-4.87767-.334092-7.14946-.283979-2.271791.05011-3.808592.751699-4.677216 1.787359-.868627 1.03568-.985557 2.03794-.985557 2.03794s2.255086 3.4578 2.037929 5.04471-1.937703 5.02801-4.393242 4.66051-5.327929-.49475-6.397386-2.89501z" fill="#ffbd98" paint-order="stroke fill markers"/><path id="path3893" d="m114.29113 91.506404s-1.00226-6.447877-1.57021-7.349913c-.56795-.902034-3.64154-5.913337-4.87767-6.247424-1.23612-.334087-5.21175-.334087-6.31424.133633-1.10249.467723-6.481285 1.770661-6.147198 2.372019.334086.601355-.300678 3.307458-.902036 3.307458-.601356 0-4.510173.734992-4.610399 1.169305-.100225.434314 5.044712 2.171565 6.180608 2.004523 1.135896-.167045 6.882195-.06682 7.383325.100224.50113.167045 1.43657 2.50567 1.43657 2.50567s-9.822155-.100242-10.791006-.000018c-.968854.100227-3.507915.467722-3.608139 1.169305-.100227.701582 3.975634 2.271792 3.975634 2.271792s-3.140419 1.637024-2.706105 2.204974c.434313.567946 6.481286 2.138156 7.216277 2.037929.734992-.100227 4.176089-.03341 4.142679.634764-.0334.668174 2.7061 3.507915 2.50565 4.343135-.20045.83521-1.50339 1.33634-2.07134 1.83747-.56795.50114-1.10249 2.57247.30068 3.10701 1.40316.53454 4.47676 1.1359 6.04697.33409s4.71063-3.47451 4.74404-4.00904c.0334-.53454-.43431-4.911082-.33409-5.813116.10023-.902036 0-6.11379 0-6.11379z" fill="#ffbd98" paint-order="stroke fill markers"/><path id="path3896" d="m31.905299 108.44461s2.80633 9.95579 2.873148 10.95805c.06682 1.00226.835218 3.44109-.23386 4.00904s-12.227582 3.30746-13.530521 3.27406-6.280833.56794-7.015825-.56795c-.734991-1.1359-1.202713-7.31651-.734991-8.68626.467722-1.36976 2.405426-9.75534 3.006782-11.02487.601357-1.26953 2.906556-4.74404 2.939965-2.77292.03341 1.97111 1.436952 6.87703 1.436952 6.87703s4.877291 3.34603 6.514316 3.17898c1.637027-.16704 3.507912-1.77066 3.808592-2.93996.300678-1.16931.935442-2.3052.935442-2.3052z" fill="#ffd42a" paint-order="stroke fill markers"/><path id="path3898" d="m115.52725 101.66264s1.80407 8.58604 1.87089 9.65512c.0668 1.06908.66817 8.98693-.0334 9.88897-.70158.90203-6.44788 4.77744-8.28535 5.0113-1.83748.23386-10.757603-1.5368-10.991466-2.10474-.23386-.56795-.434311-14.5996-.100224-15.26778.334087-.66817 1.536798-5.71288 2.57247-5.74629 1.03567-.0334 2.7061.23386 2.73951.90203.0334.66818.23386 3.10701.96885 3.30746.73499.20046 5.91334.26727 6.68174-.20045s2.70611-2.37201 2.97337-2.73951c.26728-.3675.20046-3.4745.80181-3.20723.60136.26726.80181.50112.80181.50112z" fill="#ffd42a" paint-order="stroke fill markers"/><path id="path3900" d="m68.980655 56.50744s-.188989 18.048361-.188989 19.560267.09449 13.985118.661458 16.725448c.566965 2.740326 2.500866 9.264745 1.841021 10.372885-.659844 1.10814-2.667844 4.32094-4.439608 3.73035-1.771763-.59059-5.905886-2.17347-5.953127-3.5672-.04724-1.39374-.188984-17.056125-.188984-17.62309s.259858-24.261347.259858-24.261347-.07088-7.583247.637831-7.205221c.708707.378026 3.236425.803249 4.039624.685134.803198-.118118 2.027385-1.160849 2.716704-.614212.689319.546634.614212 2.196986.614212 2.196986z" fill="#b1d5fd" paint-order="stroke fill markers"/><path id="path3902" d="m74.579426 63.334635s8.976934-1.889882 12.024368-2.385976 8.646205-1.41741 9.189545-.165364c.543341 1.252048 1.842635 4.890068.02363 5.740513-1.81901.850448-19.985492 2.338729-20.481586 2.291482-.496093-.04725-3.118302-3.803385-2.338726-4.512093.779577-.708705 1.582775-.968562 1.582775-.968562z" fill="#ff8280" paint-order="stroke fill markers"/></g><path id="path3776" d="m15.723564 127.44145c-1.529879-.43635-2.738176-1.16185-3.388808-2.03474-.730405-.97986-.86425-3.63501-.29274-5.8056.922636-3.50408 2.187636-8.86922 2.578082-10.93416.225156-1.19083.621322-2.58054.880319-3.0883.512617-1.00477 1.851849-2.26085 2.410612-2.26085.288038 0 .323078-.68681.198124-3.885615-.269816-6.908745.502132-9.575275 4.331883-14.963721 1.520484-2.1393 2.973879-3.907835 3.45397-4.202884l.828903-.50945-.150005-2.801923c-.08251-1.541075-.612098-5.667552-1.17686-9.169944-1.192975-7.39805-1.512242-11.349905-.970134-12.008403.477631-.580162 4.515856-2.435924 7.412341-3.406348 3.033627-1.016347 7.526703-1.778924 10.481279-1.778924 1.282817 0 3.821842-.175362 5.642237-.389666 6.145927-.723563 7.379481-.80164 9.44936-.598203 2.524127.248075 4.415421.93341 6.060102 2.195975l1.246616.957029 1.019523-.95057c2.651819-2.472459 4.735544-2.845776 14.699735-2.633449 4.272956.09104 9.434039.15465 11.46905.141376 4.063392-.0265 6.682877.377033 9.269137 1.427964.83074.337519 1.54791.613693 1.59381.613693s5.02516 2.17106 4.76489 7.004933c-.0586 1.089156-.71619 17.391058-.72882 18.068982-.003.131199.38547.339569.86203.463071.98217.25451 3.28325 2.503108 4.25048 4.153574.3364.573989.84918 1.722347 1.13954 2.551846 2.03212 5.805688 2.35253 7.635329 2.2484 12.839308-.0667 3.337469-.0479 3.478439.61623 4.610919 1.28852 2.19701 2.26082 7.68538 2.63619 14.88071.199 3.81448-.16953 5.3363-1.71847 7.09597-2.85709 3.24585-6.55303 4.46821-12.04987 3.98527-4.30968-.37866-6.936493-1.88854-7.812209-4.49036-.803784-2.38807.217193-13.98562 1.536932-17.45891l.46838-1.23271-2.841155-.004c-1.562595-.003-7.653629.13248-13.535632.29924l-10.69447.30316-1.180967 1.21245c-1.408681 1.44624-3.379224 2.16484-5.140348 1.87461-1.922082-.31677-5.021321-2.1413-5.021321-2.95613 0-.28378-7.428195-.25715-12.35398.0442-2.101451.12855-6.310389.31137-9.353195.4062l-5.532371.17243-.603252.91585c-.595586.90423-.597298.92554-.134322 1.68002 1.035224 1.68712 2.515047 7.58032 3.026358 12.05216.297766 2.60399.295073 2.63332-.301486 3.28356-1.002769 1.09302-2.784764 2.09585-4.92702 2.7727-4.437327 1.40201-12.289152 2.23587-14.667066 1.55762zm9.44011-2.4635c3.392708-.61855 4.812243-1.03515 7.203832-2.1142l1.727354-.77936-.157175-1.55063c-.276562-2.729-.874239-5.93942-1.521673-8.1736-.346273-1.19492-.6315-2.25681-.63386-2.35977-.0027-.10296-.39522.61517-.873095 1.59584-1.100763 2.25902-1.890267 2.77905-4.219351 2.77931-1.958959.00019-3.420713-.61236-5.201194-2.1796-1.529843-1.34665-2.36933-2.81816-2.810426-4.92643-.196791-.94051-.430585-1.78283-.519625-1.87184-.263709-.26371-1.094521 1.02178-1.371102 2.12149-.141141.56127-.543747 2.3386-.894704 3.94973-.35092 1.6111-.929221 4.19016-1.285086 5.73122-1.110654 4.80976-.758409 7.99789.924609 8.36856 1.213809.26733 6.806594-.0757 9.631496-.59072zm83.912226.11456c2.72592-.47534 4.77985-1.47753 6.2117-3.0309 1.40458-1.52382 1.64246-2.17424 1.63826-4.47942-.006-3.47935-.98274-11.99413-1.65035-14.39173l-.28368-1.0189-.19252 1.23157c-.24626 1.57527-1.07523 2.79646-2.52108 3.71402-1.74894 1.10984-2.85161 1.36719-5.34705 1.24788-3.06234-.1464-4.20943-.96744-4.51291-3.23014-.12263-.91411-.21064-1.01311-.98085-1.10304-.81279-.0949-.86636-.0459-1.35894 1.24124-.758235 1.98139-1.886291 9.86894-1.887885 13.20061-.0027 3.37841.340381 4.37306 1.846515 5.36979 1.29971.8601 3.8023 1.59296 5.52133 1.61691.71716.01 2.30001-.15556 3.51746-.36789zm-79.891188-13.0505c.957145-1.36934.929167-3.30364-.09917-6.8597-.381258-1.31836-.382303-1.31931-1.152152-1.05095-.546197.1904-.850782.1884-1.046113-.007-.377962-.37796-.05342-.7272 2.390281-2.57239 2.983032-2.252347 4.56965-2.620283 8.776345-2.035191 1.085774.151032 2.383589.196791 2.884082.101679l.909909-.172938-1.910408-.984024c-2.590865-1.334494-3.423128-1.536221-7.185105-1.741564-3.220545-.175812-3.960912-.354938-3.259224-.788603 1.208558-.746924 7.245447-.614619 9.376263.205483 1.337062.514626 1.363445.515004 2.419882.0354.587407-.266663 1.275385-.487404 1.528825-.490476.253439-.0027.396526-.109533.318051-.236613-.270842-.438187-5.761119-2.601511-7.547915-2.974065-1.833167-.382206-2.379059-.352582-7.47717.406063-3.374846.502203-2.70228-.889893.819031-1.695297 3.03051-.693128 6.551416-.593769 9.150216.258252 1.150099.377058 2.558086.894658 3.128929 1.150242.992085.44417 2.294314.454395 2.294314.01811 0-.797683-6.989125-4.68812-9.850085-5.482991-1.524826-.423628-1.642484-.420315-3.948184.110823-2.866751.660358-4.319831.780714-4.465692.369836-.151887-.427846.577445-.757024 3.283986-1.482112 2.693822-.721728 4.095216-.788293 6.029503-.286541 1.148621.297933 1.36957.297456 1.484976-.0033.229813-.598822-.459237-1.140541-3.082295-2.423291-3.084412-1.508329-4.965888-2.124264-5.82802-1.907909-.454608.114135-1.261081 1.024237-2.683995 3.028954-1.118805 1.576252-2.380517 3.301029-2.803805 3.832882-.546603.686788-.931483 1.646344-1.328081 3.311396-.52575 2.207102-.546008 2.657494-.346435 7.693484.116587 2.942011.217878 6.144941.22512 7.117591.01315 1.74014.03207 1.78923 1.193497 3.0657 1.323892 1.45499 3.224454 2.59765 4.855147 2.91901 1.970345.38831 2.419332.32277 2.945488-.42994zm-4.275766-15.826681c0-.525273.774542-.847567 1.282511-.533641.509788.31507.07035 1.013371-.637689 1.013371-.461687 0-.644822-.13625-.644822-.47973zm-2.037776-3.985866c0-.452251.611647-.753139 1.019073-.501346.200285.123787.194952.274243-.01928.531995-.395986.477155-1.000048.458614-1.000048-.03064zm87.39446 13.845437c.64429-.27182 1.6447-.97641 2.22312-1.56579l1.05169-1.0716.10136-5.206568.10134-5.206585-.75717.943849c-.67988.847468-1.47191 1.252794-1.47191.753256 0-.104813.40921-1.418598.90934-2.919536l.90931-2.728971-.61228-2.240375c-.46085-1.686193-.97169-2.786027-2.06518-4.446384-1.43605-2.180508-3.17441-4.029765-3.79058-4.032386-1.02883-.0043-7.908712 1.141518-8.961285 1.492598-1.450345.483758-1.625183.76558-.831956 1.341356.526966.382517.707813.376582 2.46972-.08105 2.285741-.593722 2.710811-.526227 5.969221.947948 2.67235 1.209037 3.45649 1.744535 3.45649 2.360541 0 .57997-1.94032.219857-4.64434-.862008-1.54381-.617673-2.55184-.87838-3.09003-.799255-1.514475.222693-7.933626 1.515764-9.077212 1.828473l-1.146243.313473 1.146243.346909c.81105.245455 2.481962.33447 5.714122.304393 3.9105-.03636 4.7169.02359 5.60384.416859 1.27193.563979 1.55762.908481 1.781 2.147595.096.532709.34023 1.032125.54267 1.109796.56017.214996.43922.772397-.2051.945065-.31522.08449-3.22379.155151-6.463563.157058-5.821186.0036-7.482424.121738-7.482424.532782 0 .341404 1.661769.708429 5.731236 1.265972 4.390901.601539 6.576981 1.142898 6.428441 1.591912-.13258.400796-3.32208.524696-5.80848.225624-1.735194-.20878-2.016062-.174866-3.358231.405489-.805546.34829-1.464636.717919-1.464636.821372 0 .318547 1.749774.544793 5.603867.724486 3.21907.150104 3.85705.253683 4.96706.806456 1.52442.759125 1.92902 1.661081.66176 1.475063-.98098-.143969-.99756.05549-.0621.747114 1.62944 1.204719 2.93491 4.165739 2.47515 5.614279-.12667.39915-.40058.50728-1.33257.52596-1.41454.0284-1.52419.11504-1.15926.91599.22323.48993.51702.64405 1.3787.72323 1.63378.15012 3.24645-.0707 4.55885-.62439zm-1.80821-8.355053c0-.949007 1.94136-1.697444 2.22138-.856385.14664.440474-.95718 1.359949-1.63263 1.359949-.41664 0-.58875-.147221-.58875-.503564zm-77.096422 7.529483c.07621-.19858-.04261-.43051-.263942-.51548-.51386-.19717-.637265-.0675-.43562.45792.197313.51417.514311.54024.699562.0576zm37.105241-.2823c.350227-.17997.917592-.62775 1.260757-.99507l.623988-.66786-.425225-2.09459c-1.734758-8.545623-2.559833-23.692016-2.099568-38.543216.113271-3.655446.134268-6.931975.04666-7.281126l-.159327-.63488-1.561613.511999c-1.281773.420267-1.778194.467646-2.77028.264424l-1.208648-.247574-.161993 4.34214c-.360712 9.667739-.483523 23.265025-.300892 33.31509l.193214 10.632983 1.407726.80543c2.202887 1.26036 3.553036 1.41549 5.15522.59225zm-26.491-1.78448c2.59181-.20651 7.731393-.45077 11.421399-.54286l6.709023-.16742-.205564-4.990063c-.113055-2.744513-.194349-10.950492-.180621-18.235526.0236-12.603627.295856-19.873384.854277-22.817947.139304-.734597.199583-1.389355.133872-1.455038-.238775-.238804-12.468062-1.993706-15.421017-2.212945-2.361016-.17529-6.855496.174362-9.753819.758764-1.009822.203627-3.653237.860126-5.874374 1.458876l-4.038413 1.088704.15367 1.697371c.08449.933577.674017 4.773489 1.310039 8.533156.741771 4.384657 1.211917 8.039412 1.311281 10.192585.15458 3.351363.155913 3.357083.817914 3.522197 1.851497.461735 6.799297 2.836361 7.704973 3.697916 1.01165.96232 1.307894 2.113276.700345 2.720797-.205536.205534.495485.678947 2.597152 1.753997 4.447911 2.275147 6.209224 4.30987 4.942441 5.709643-.341859.377719-.339355.512302.02315 1.239157.371385.74442.371674.869041.0036 1.431137-.449158.685434-1.788481 1.050244-2.864419.780213-.568671-.142709-.497358-.03288.444078.683834 1.917947 1.460142 1.536266 2.741792-.971539 3.262412-1.062967.22069-2.112207.21543-4.365428-.0219-3.350715-.3528-4.308013-.20266-6.094845.95598l-1.086162.70428.70648.20291c.388519.11161 1.107627.14519 1.597959.0747.490359-.0705 1.063472-.0193 1.273603.11447.528326.33566 2.642343.29948 8.151068-.13942zm-10.895991-39.391373c-.503943-.503944.152464-.973997 1.360112-.973997 1.199676 0 1.601472.323601 1.120832.90269-.368972.444576-2.059097.493147-2.480944.0713zm-.566429-2.883074c0-.617745 1.21607-.962844 3.438738-.97588 2.060052-.01215 3.304073.358588 3.114984.928119-.06819.205415-1.125759.323816-3.326862.372435-2.779476.06141-3.22686.0162-3.22686-.324674zm74.378501 41.613017c0-.15799-.56062-1.04631-1.24581-1.97409-.68522-.927755-1.28826-1.916085-1.34015-2.196286-.0868-.469002-.36442-.522742-3.496903-.677349-4.411857-.217761-6.580253-.627519-7.339806-1.387068-.806096-.806095-.738412-1.294238.312998-2.257319l.900019-.824355-1.218404-.454777c-1.58969-.593365-2.109909-1.07033-2.109909-1.934388 0-.850949.887318-1.622892 2.389399-2.078765 1.155197-.350604 9.426076-.432517 11.320916-.112157 1.06174.179532 1.09519.16528.92358-.392907-.0979-.318573-.23073-.636502-.29506-.706547-.0643-.07004-2.48585-.135727-5.381172-.145952-5.974875-.02121-7.647391-.287589-8.754757-1.395003-.913484-.913439-.900946-1.566433.04531-2.362686.701724-.59048 3.547316-1.445504 4.810641-1.445504.449293 0 .471461-.07756.215733-.755022-.835884-2.214494 1.109248-3.332394 7.313855-4.203387 1.52849-.214566 2.83402-.445029 2.90111-.51219.17374-.173668.25013-1.577967.55459-10.194729.14852-4.202885.32527-8.161008.39274-8.795817.11373-1.069758-2.21297-3.873516-4.67811-4.805664-6.791048-2.567913-11.234654-2.387114-25.722566 1.046378l-5.685311 1.347385.07566 2.801924c.04162 1.541051-.02126 5.438281-.139618 8.660519-.236875 6.444453.112875 18.051297.752689 24.979459.385419 4.173623 1.250245 10.504677 1.464141 10.718597.06512.0651 4.159936-.003 9.099537-.15038 11.890482-.35592 20.382718-.31448 22.024208.10743 1.67399.43031 1.91039.44275 1.91039.10065zm-23.313027-2.26978c-.311755-.504418.611305-1.009054 1.845796-1.009054.761463 0 1.152503.122351 1.256371.393049.220003.573345-.01306.698535-1.535212.824775-.933509.0774-1.431083.0112-1.566955-.20877zm-7.523053-30.931532c-.358396-.194905-.798871-.677494-.978835-1.072356-.546585-1.199288-.814221-3.431132-.519076-4.32846.235875-.717104.50225-.893609 2.354009-1.559854 4.253336-1.530255 11.757392-2.830309 16.797646-2.910077 3.319684-.05255 4.616337.2731 5.127714 1.287899.448293.889606.753329 5.010387.417388 5.638142-.364306.680712-1.345054.937176-6.37241 1.666268-11.433197 1.658093-15.552932 1.971138-16.826436 1.278438zm11.47729-2.574607c2.73188-.349626 5.884048-.750422 7.004835-.890654 3.088268-.386353 2.929282-.264806 2.929282-2.239423 0-.994208-.128458-1.843393-.305684-2.020589-.979781-.979813-13.412957.262327-19.776048 1.975712l-1.1036.297171.180775 1.321622c.362071 2.64744.247674 2.567171 3.372909 2.366857 1.501748-.09624 4.965652-.461069 7.697531-.810696zm-13.500212-13.528005c1.050717-.35475 3.384656-1.02724 5.186512-1.494433 1.801875-.467146 3.339751-.91301 3.417514-.990776.250773-.250816-7.40262-.146285-9.113481.124479-1.979956.313329-3.94396 1.213469-4.95879 2.272692-.796818.831716-.747104.873186.655596.547106.640318-.148883 1.103168-.110966 1.528303.125193.335373.186301.781711.276198.991869.199743.210131-.07643 1.24176-.429229 2.292477-.784004zm-9.042584.274268c-1.829978-1.416357-4.427608-2.151002-7.463135-2.110653l-1.961563.02608 3.056678.60285c1.681136.331585 3.457825.774779 3.948184.984889.752446.322457 2.357278.824351 2.801923.87626.07008.0081-.101913-.162564-.382087-.379418z" fill="#4d4d4d" stroke-width=".255"/><path id="path3706" d="m102.855 50.526906c.003-1.358682.48704-2.69663 1.32102-3.646485 1.78648-2.034675 2.5033-1.740698 1.87404.768559-.38723 1.544077-.38978 1.808812-.0289 3.05007.6362 2.18842 1.0779 2.566813 2.99055 2.562143 2.80163-.0069 4.82373-1.626516 6.79317-5.441213.82016-1.588597 2.33199-5.333631 2.33199-5.776706 0-.06114-.69451.448509-1.54341 1.132533-.84886.684048-2.04524 1.384207-2.65857 1.555947-.97533.273052-1.23663.252746-2.08411-.162182-.56824-.2782-1.18258-.859505-1.48547-1.405609l-.5165-.931218-.94664.867536c-1.05358.965537-1.8244 1.082842-3.10915.4732-1.82187-.864534-1.88944-2.955812-.24653-7.629346 1.63567-4.6528 1.62916-4.503393.13309-3.056696-1.81387 1.754068-3.91611 4.686238-5.896632 8.224641-1.499803 2.679471-1.747135 2.990823-2.43033 3.05896-.648303.06466-.863964-.08206-1.460731-.993517-.385069-.588169-.769011-1.571794-.85317-2.185846l-.153031-1.116446-.502222.836387c-.993311 1.654233-2.368384 3.308418-3.04331 3.661024-.378313.197645-1.138848.35935-1.690072.35935-.794232 0-1.090927-.135323-1.429444-.651969-.323149-.493195-.888821-2.770846-.903522-3.637954 0-.04786-.521796.55173-1.157746 1.332443-1.898788 2.330916-4.043115 3.224312-5.8085 2.419955-.687337-.313186-1.186298-1.205794-1.186298-2.122212 0-.921494.967484-3.842486 2.045611-6.17612.535469-1.159034 1.0525-2.356011 1.148981-2.659879l.175379-.552539-.758265.539883c-1.11549.794347-3.393256 3.675252-6.022466 7.617216-1.276268 1.913509-2.515002 3.596102-2.752777 3.739051-.738863.444219-1.81789-.117662-2.164208-1.126956-.468768-1.366214-.389401-2.797848.283949-5.122639.339183-1.171047.585399-2.160489.547125-2.198741-.03819-.03823-.737818 1.050192-1.554632 2.418741-2.577038 4.317831-3.752448 5.41757-5.790341 5.41757-1.808883 0-2.974213-1.841106-2.627751-4.151549.181748-1.211873 1.645646-4.44088 3.098617-6.834786.478821-.788864.870564-1.507423.870564-1.596844 0-.146523-.648516-.053-1.825042.263162-.270627.07274-.624853.778474-.97889 1.950426-1.707159 5.650512-6.125642 10.550029-9.983497 11.07037-.800736.107986-1.059986.01025-1.719364-.6493-.538938-.538931-.776479-1.023522-.776479-1.584069v-.807597l-1.796578 1.66336c-1.987081 1.839723-3.535525 2.7146-4.804668 2.7146-1.207387 0-2.470054-1.323458-2.687904-2.817295l-.164922-1.130889-2.468819 2.441071c-3.091871 3.057125-5.131169 4.18177-7.262247 4.005049-1.580637-.131079-2.769108-.854356-3.272501-1.991632-.185279-.418575-.417334-.761052-.515671-.761052-.09831 0-1.474482 1.21795-3.058128 2.706544-3.432459 3.226457-7.757965 6.734522-9.932441 8.055429-1.999692 1.214756-3.703311 1.331036-4.6431791.316904-2.1134736-2.280414-.2101456-7.294781 8.9430251-23.560194 5.206509-9.252144 7.447903-13.401238 7.835359-14.504267.431728-1.229079.984978-1.524391 1.679037-.896278.467362.42296.534812.709621.447005 1.89971-.154581 2.095568-2.033191 6.156457-7.82646 16.91793-4.685524 8.703775-7.094397 13.658679-7.555445 15.541015l-.182604.745537.784333-.558521c.431395-.307157 2.426205-1.892918 4.432868-3.52389 3.322557-2.700467 6.028216-4.625392 8.034249-5.715932.685357-.372577.7702-.564407.909503-2.056315.188251-2.015823 1.351483-5.282415 2.631282-7.389208 2.63366-4.335514 6.885979-6.736904 9.521855-5.377268 2.409063 1.242665 2.262661 4.592623-.332131 7.600175-1.796731 2.082555-5.061702 3.189754-6.819817 2.312708-.46112-.230058-.925997-.330537-1.03299-.22329-.391067.391836-.985024 3.272287-.985024 4.776779 0 1.657307.468165 2.679995 1.224385 2.67468.797727-.0055 3.327529-1.63898 5.291703-3.416642 2.745968-2.485162 5.499628-5.712429 7.015626-8.222234 1.619632-2.681425 3.599615-4.731567 5.361928-5.551986 2.184772-1.017064 3.623701-.763411 4.696099.827926.473731.702972.597676.7662.866708.44205.412037-.496484 1.637764-.4839 2.143733.02217.637454.637479.478109 1.541194-.740439 4.19962-1.693034 3.693531-2.939848 7.626725-2.417593 7.626725 1.706952 0 4.601267-3.864745 5.974368-7.977496l.664891-1.991561-.614485-.483329c-1.431632-1.126121-1.456295-3.251862-.05306-4.570195 1.199172-1.126528 3.226004-.527777 3.648941 1.077908.251395.954479.602306 1.002526 2.844349.389404 1.656067-.452894 2.467433-.287471 3.16359.644939.470245.629852.486972.794727.192376 1.896707-.17746.663766-1.059103 2.535235-1.959247 4.158795-1.567793 2.827829-2.533396 5.03043-2.305295 5.258509.059.05901.662-.603184 1.339998-1.47153.678016-.868323 1.712077-2.184154 2.29798-2.924043.585859-.739865 1.662238-2.302079 2.391976-3.471577 2.557662-4.098974 3.526508-4.952401 4.728256-4.16499.854665.559998.789008 1.861553-.289119 5.732091-.487783 1.751207-.887939 3.230651-.8892 3.287658-.0027.05698.564645-.703733 1.257632-1.690505 2.458515-3.500772 6.040202-6.436851 7.852255-6.436851.33604 0 .951975.3456 1.381586.775185.709092.70912.765147.888272.657569 2.101455-.06594.742963-.755005 3.003763-1.566694 5.140323-.796971 2.097713-1.416103 3.985006-1.375866 4.193996.102219.530708 1.550822-1.489882 5.164038-7.203217 3.330574-5.266303 3.953327-5.951042 5.03758-5.538783 1.092701.415429 1.106456 1.235229.06062 3.614001-1.124859 2.558376-2.896296 9.735067-2.225523 9.01627.130764-.140064 1.534897-2.432563 3.120299-5.094397 4.697445-7.886716 4.977529-8.230957 6.299242-7.742003.99129.366714.93944 1.240185-.29858 5.028142-.642352 1.96556-1.16794 3.717864-1.16794 3.894036 0 .17622.62587-.594485 1.3908-1.712623 3.82238-5.586997 7.16773-7.871129 8.93698-6.10188.88813.888152.81225 2.036343-.38917 5.887194-1.09187 3.499914-1.69355 6.147806-1.45184 6.389542.0827.0827.65011-.165805 1.2609-.552205 1.00951-.638694 1.1504-.857407 1.54917-2.405394 1.09769-4.261156 4.07088-8.654346 6.83682-10.102092 1.70125-.89051 3.9367-.436854 4.6786.949427.27299.510069.3472.454991 1.28376-.953001 1.10264-1.657712 2.02009-2.039918 2.92693-1.219261.67437.61031.61886 1.062822-.40676 3.313351-.94566 2.075095-2.29948 5.968488-4.44793 12.791262-2.79578 8.878517-5.8376 12.77415-10.77003 13.793096-.80583.166449-7.59034.839537-7.57599-6.420196zm-56.002148-9.929471c.837027-.850162 2.330029-2.677635 3.317755-4.061079l1.795876-2.515359-.176217-1.410376c-.214067-1.713432-.57831-1.91401-1.894185-1.043184-2.527343 1.672488-5.628347 7.342185-5.628347 10.290466 0 .787173.04171.831931.531614.569722.29238-.156462 1.216449-.980051 2.053504-1.83019zm69.214348-1.35556c1.43539-1.570579 3.7946-5.030311 4.01043-5.881213.17429-.687098-.55111-2.128886-1.07107-2.128886-.21495 0-1.02461.599467-1.7993 1.332109-1.04743.99061-1.69096 1.921088-2.5105 3.629779-1.07669 2.244928-1.80507 4.777041-1.51102 5.252861.20873.337687 1.36981-.550704 2.88146-2.20465zm-80.587322-4.00798c.560375-.315976 1.391404-1.129412 1.846732-1.807644 1.575936-2.347553.781541-3.204269-1.543318-1.664362-3.401915 2.25334-3.674541 5.372764-.303414 3.472006zm57.571365-9.510467c-.639409-.63941-.40394-1.909315.441312-2.379965.628996-.350198.771993-.350198 1.400989 0 1.402412.780881.897703 2.793987-.700499 2.793987-.400273 0-.914106-.186324-1.141802-.414022z" fill="#ff8280" stroke-width=".255"/><path id="path3708" d="m51.24206 21.692162c-.158869-.413903 1.283105-3.703017 4.165061-9.500672 1.444955-2.9068105 2.049144-3.8845022 2.400605-3.8845022.77156 0 .569914 1.6319966-.527111 4.2665662-.539622 1.295907-.926212 2.356179-.859141 2.356179.06711 0 1.113887-.930932 2.326237-2.068732 3.195216-2.9987582 3.859936-3.325863 3.859936-1.899424 0 .762458-1.095025 2.151289-3.380845 4.287992l-1.840941 1.720821.764174.56741c3.72692 2.767414 4.280197 4.699347.854386 2.983387-.89021-.445911-2.17427-1.206534-2.853429-1.690268-.679187-.483734-1.259515-.842989-1.289564-.79835-.03018.04466-.600163.969517-1.266765 2.055267-.846559 1.378797-1.362616 1.974092-1.711384 1.974092-.274644 0-.563168-.166401-.641219-.369766zm13.427216.05081c-.477199-.174814-1.098214-.628804-1.379938-1.008841-.467336-.630377-.485144-.809195-.202961-2.037774.170137-.740722.803069-2.582519 1.406565-4.092896.603486-1.510354.999283-2.806643.879571-2.880644-.119712-.074-.217643-.355561-.217643-.625729 0-1.4302522 5.705038-3.1807453 7.403621-2.271692.614053.3286301.640148.9366518.04693 1.0932569-4.945611 1.3056301-4.842536 1.2452381-5.311043 3.1119161-.156247.622536-.147806.625562 1.749802.625562 1.301985 0 1.998547.110489 2.195905.348269.217337.261874.209257.414261-.03252.614027-.423649.350151-3.251262 1.075454-4.192634 1.075454-.691005 0-.778668.117138-1.300554 1.737457-.307728.955598-.559546 1.859837-.559546 2.009412 0 .149598.429845.346267.95519.437069 3.652354.631211 4.188562.893848 3.311378 1.621796-.523939.434781-3.775164.601301-4.752162.243357zm16.023555-.655044c0-1.063633 1.084486-4.497315 2.405325-7.615714 1.607615-3.7954875 2.552393-5.3759338 3.330366-5.5711958 1.785643-.4481752 4.402648.9907521 5.093923 2.8008038.422315 1.105816.423216 1.234394.01594 2.301292-.238396.624299-.897442 1.550965-1.472527 2.07052-1.226771 1.108318-3.842245 2.353294-5.389428 2.565335-1.086027.148859-1.104862.169117-2.008879 2.159249-.715182 1.574416-1.027432 2.008983-1.443532 2.008983-.412785 0-.530966-.160109-.530966-.719273zm5.832235-6.234247c3.428298-2.03377 3.87533-3.257487 1.716942-4.699966-.681313-.4553008-1.317839-.8278308-1.414527-.8278308-.09669 0-.440952.8310008-.76503 1.8467298-.324078 1.015681-.858835 2.516669-1.188372 3.335515-.688915 1.71198-.661883 1.717652 1.650987.345552zm-14.496729 5.74434c-.438863-.557924-.518031-.902403-.390573-1.699443.401823-2.512951 3.649869-8.86753 4.684759-9.1654394 1.08999-.3137823 4.424102-.6792578 4.879187-.5347835.280507.088991.510023.331919.510023.5397645 0 .4447194-1.242337 1.0028594-3.438637 1.5448404-1.544985.381276-1.588672.415858-2.123268 1.681188-.300198.710573-.517742 1.319977-.483441 1.354296.03432.03432.794367-.106747 1.689026-.313424 2.871055-.663267 4.327549-.100193 2.350144.9086-.56133.286351-1.967579.79406-3.125046 1.128219-1.949402.562787-2.127339.670869-2.415404 1.467074-.624753 1.726851-.598316 1.75109 1.911561 1.75109 1.652392 0 2.342874.09826 2.564256.365022.628951.757834-1.855047 1.654614-4.616021 1.666506-1.277584.0055-1.510306-.07533-1.996566-.69351z" fill="#ffd42a" stroke-width=".255"/></g></g></g></svg>